<?xml version="1.0" standalone="no"?>
<!DOCTYPE svg PUBLIC "-//W3C//DTD SVG 20010904//EN"
 "http://www.w3.org/TR/2001/REC-SVG-20010904/DTD/svg10.dtd">
<svg version="1.0" xmlns="http://www.w3.org/2000/svg"
 width="200.000000pt" height="200.000000pt" viewBox="0 0 200.000000 200.000000"
 preserveAspectRatio="xMidYMid meet">
<metadata>
Created by potrace 1.14, written by Peter Selinger 2001-2017
</metadata>
<g transform="translate(0.000000,200.000000) scale(0.100000,-0.100000)"
fill="#000000" stroke="none">
<path d="M860 1984 c-268 -49 -487 -176 -627 -364 -136 -184 -179 -284 -219
-517 -15 -89 -15 -104 1 -207 27 -177 80 -320 168 -451 50 -74 165 -194 232
-243 28 -20 56 -42 64 -50 40 -38 218 -108 340 -132 102 -21 250 -26 310 -11
20 5 71 17 114 26 81 18 261 99 345 157 255 174 423 517 409 835 -7 154 -47
312 -105 417 -38 68 -134 195 -188 250 -164 165 -337 252 -578 291 -112 18
-163 17 -266 -1z m26 -145 c35 -16 64 -34 64 -39 0 -5 -8 -6 -17 -3 -15 6 -16
4 -6 -8 10 -13 9 -20 -8 -37 -11 -12 -26 -22 -33 -22 -8 0 -19 -7 -26 -15 -22
-26 -32 -16 -28 25 2 22 1 40 -3 40 -8 0 -19 -37 -19 -70 l-1 -25 -19 24 c-19
22 -20 22 -20 3 0 -19 -41 -54 -69 -58 -7 -2 -16 6 -18 17 -3 11 -11 18 -18
15 -19 -7 -49 30 -39 46 5 7 9 15 9 18 1 13 33 49 39 43 4 -4 18 4 31 17 39
40 55 52 55 40 0 -5 5 -10 10 -10 6 0 10 7 10 15 0 23 36 18 106 -16z m-207
-3 c-17 -12 -79 -44 -79 -41 0 12 42 41 61 42 12 1 20 1 18 -1z m-99 -42 c0
-3 -6 -12 -14 -19 -7 -8 -20 -34 -27 -59 -14 -49 -16 -51 -39 -36 -12 8 -13
13 -2 27 6 10 15 24 19 32 14 30 63 73 63 55z m93 -135 c4 -16 3 -18 -9 -8 -7
6 -11 15 -8 20 8 13 11 11 17 -12z m117 0 c0 -5 -4 -9 -10 -9 -5 0 -10 7 -10
16 0 8 5 12 10 9 6 -3 10 -10 10 -16z m-200 -39 c12 -8 11 -10 -7 -10 -13 0
-23 5 -23 10 0 13 11 13 30 0z m31 -44 c5 3 9 0 9 -6 0 -7 -7 -10 -15 -7 -8 4
-17 2 -20 -3 -4 -6 -11 -10 -17 -10 -6 0 -3 9 8 21 10 11 20 16 22 10 2 -6 8
-9 13 -5z m62 -21 c0 -6 -7 -11 -16 -13 -12 -3 -15 1 -11 13 7 17 25 17 27 0z
m-56 -516 c10 -11 26 -30 36 -41 15 -19 23 -48 13 -48 -2 0 -12 -3 -22 -7 -14
-5 -16 -2 -12 18 4 21 -11 49 -25 49 -1 0 -2 -28 -1 -62 1 -43 -3 -70 -14 -83
-11 -16 -13 -16 -9 -2 5 12 1 17 -11 18 -10 0 -12 3 -4 6 21 8 13 25 -8 18
-12 -4 -27 -1 -35 5 -8 7 -15 9 -15 5 0 -5 -9 0 -20 10 -12 10 -18 25 -15 34
3 8 0 18 -6 22 -7 4 -8 12 -3 20 5 8 9 19 9 24 0 6 12 11 28 13 15 2 27 7 27
11 0 4 16 8 35 9 25 2 40 -3 52 -19z m23 -123 c0 -3 -4 -8 -10 -11 -5 -3 -10
-1 -10 4 0 6 5 11 10 11 6 0 10 -2 10 -4z m-43 -143 c4 -10 -3 -10 -26 -2 -38
13 -39 18 -4 16 14 -1 28 -8 30 -14z m253 -28 c0 -17 -5 -25 -17 -24 -11 0
-13 3 -5 6 6 2 12 9 12 15 0 6 -7 8 -14 5 -10 -4 -13 -1 -9 9 9 24 33 16 33
-11z m-290 5 c0 -5 -2 -10 -4 -10 -3 0 -8 5 -11 10 -3 6 -1 10 4 10 6 0 11 -4
11 -10z m-281 -31 c26 -24 41 -60 41 -96 0 -26 -1 -25 -29 12 -15 21 -26 46
-24 55 3 11 -5 24 -18 34 -16 11 -19 16 -8 16 8 0 25 -9 38 -21z m348 -1 c-3
-8 -6 -5 -6 6 -1 11 2 17 5 13 3 -3 4 -12 1 -19z m163 -28 c0 -5 -6 -10 -14
-10 -8 0 -18 5 -21 10 -3 6 3 10 14 10 12 0 21 -4 21 -10z m-10 -139 c37 -18
55 -33 54 -44 -1 -13 3 -16 16 -12 9 3 23 -1 30 -10 7 -8 19 -15 27 -15 8 0
12 -4 8 -9 -6 -10 32 -51 47 -51 4 0 8 -6 8 -13 0 -7 9 -18 20 -25 12 -7 19
-20 18 -30 -6 -35 97 -16 193 35 4 2 9 -4 13 -14 3 -10 9 -24 12 -32 5 -10 1
-12 -17 -8 -13 3 -37 0 -54 -7 -29 -13 -29 -13 20 -10 46 3 44 2 -25 -15 -41
-10 -79 -15 -85 -12 -5 3 5 7 23 9 17 2 32 7 32 12 0 11 -61 2 -114 -16 -21
-8 -42 -11 -47 -8 -5 3 -9 0 -9 -5 0 -6 -9 -11 -19 -11 -10 0 -21 -7 -25 -15
-3 -8 -1 -15 4 -15 6 0 10 -6 10 -13 0 -7 9 -13 20 -13 25 0 25 4 -2 27 -16
15 -18 19 -5 19 8 0 17 -3 20 -7 2 -5 2 -1 0 7 -2 8 10 0 27 -17 31 -32 54
-36 44 -8 -6 16 20 31 56 30 14 0 28 5 32 10 4 6 8 1 8 -10 1 -18 2 -18 13 -4
7 9 25 16 44 15 17 -1 29 2 26 7 -2 4 3 7 11 7 9 0 16 -5 16 -12 0 -9 3 -9 12
0 7 7 21 12 32 12 17 0 18 -2 6 -9 -8 -6 -18 -7 -22 -5 -4 3 -8 -2 -8 -10 0
-17 -2 -17 -85 -21 -82 -4 -79 -2 -61 -30 21 -32 20 -42 -4 -48 -13 -3 -18
-11 -14 -20 9 -26 -78 -50 -183 -51 -39 0 -69 -4 -67 -8 3 -5 -7 -3 -23 3 -15
6 -39 12 -53 14 -116 17 -168 36 -225 82 -16 13 -45 34 -64 46 -35 22 -52 47
-32 47 5 0 27 -16 48 -35 36 -34 78 -53 89 -42 3 3 -5 11 -18 19 -99 54 -157
107 -129 116 7 2 5 10 -7 20 -10 10 -12 13 -5 8 8 -5 17 -6 21 -2 4 4 -1 12
-11 18 -14 8 -16 13 -6 24 7 9 8 18 2 27 -19 23 -22 59 -7 74 14 14 15 14 18
-7 0 -5 17 -18 36 -28 31 -17 71 -62 83 -95 3 -9 8 -9 18 1 11 10 10 12 -4 12
-19 0 -23 15 -7 25 6 4 8 11 5 16 -3 5 2 6 12 2 15 -5 16 -3 6 8 -21 22 -15
34 7 14 11 -10 20 -15 20 -12 0 4 9 -2 20 -13 23 -23 40 -26 40 -7 0 7 16 13
42 14 44 3 60 16 50 42 -6 14 -7 14 -10 -1 -4 -20 -27 -24 -37 -7 -4 5 -19 15
-33 20 l-27 11 23 18 c13 11 21 24 17 30 -9 15 2 40 17 39 7 0 38 -13 68 -28z
m155 -22 c12 -19 -5 -23 -22 -6 -16 16 -16 17 -1 17 9 0 20 -5 23 -11z m435
-91 c9 -10 34 -20 55 -24 22 -3 51 -13 65 -22 l25 -16 -35 -14 c-19 -8 -57
-16 -85 -18 -27 -1 -44 0 -37 3 6 2 10 8 8 11 -2 4 16 8 41 8 24 1 49 6 55 12
18 18 -19 26 -60 14 -27 -8 -38 -8 -43 0 -4 6 -19 8 -38 5 -18 -4 -31 -2 -31
3 0 13 -56 13 -81 -1 -11 -6 -25 -8 -32 -6 -7 2 0 10 16 17 15 7 27 19 27 26
0 20 35 35 75 32 19 -1 38 1 42 6 4 4 9 2 12 -5 2 -7 11 -21 21 -31z m-96 -60
c-5 -8 -1 -9 12 -4 18 7 18 6 1 -11 -15 -15 -19 -16 -27 -3 -10 15 -4 30 11
30 6 0 7 -5 3 -12z m218 -37 c-8 -4 -13 -12 -12 -17 1 -5 -4 -10 -12 -12 -9
-2 -8 0 2 7 13 10 13 11 0 11 -13 0 -13 1 0 10 8 5 20 10 25 10 6 0 4 -4 -3
-9z m-45 -17 c-3 -3 -12 -4 -19 -1 -8 3 -5 6 6 6 11 1 17 -2 13 -5z m-68 -25
c-22 -14 -33 -10 -19 6 7 8 17 12 22 9 6 -4 5 -10 -3 -15z m-24 -29 c3 -5 1
-10 -4 -10 -6 0 -11 5 -11 10 0 6 2 10 4 10 3 0 8 -4 11 -10z m-370 -220 c8
-13 -25 -13 -45 0 -12 8 -9 10 12 10 15 0 30 -4 33 -10z"/>
<path d="M657 1743 c-4 -3 -7 -11 -7 -17 0 -6 5 -5 12 2 6 6 9 14 7 17 -3 3
-9 2 -12 -2z"/>
<path d="M465 370 c3 -5 8 -10 11 -10 2 0 4 5 4 10 0 6 -5 10 -11 10 -5 0 -7
-4 -4 -10z"/>
<path d="M572 328 c5 -35 16 -47 38 -41 26 7 25 9 -6 38 -33 31 -35 31 -32 3z"/>
<path d="M870 230 c19 -13 30 -13 30 0 0 6 -10 10 -22 10 -19 0 -20 -2 -8 -10z"/>
<path d="M905 190 c3 -5 8 -10 11 -10 2 0 4 5 4 10 0 6 -5 10 -11 10 -5 0 -7
-4 -4 -10z"/>
<path d="M1334 432 c3 -6 0 -13 -6 -15 -7 -3 -1 -6 15 -6 32 -1 34 4 6 20 -13
6 -19 7 -15 1z"/>
</g>
</svg>
